<svg width="927" height="643" viewBox="0 0 927 643" fill="none" xmlns="http://www.w3.org/2000/svg">
<rect width="927" height="643" fill="#E5E5E5"/>
<g id="Frame 1">
<rect width="927" height="643" fill="white"/>
</g>
<path id="Vector" d="M553.321 118.882C568.068 118.882 580.022 106.928 580.022 92.1816C580.022 77.4352 568.068 65.4809 553.321 65.4809C538.575 65.4809 526.621 77.4352 526.621 92.1816C526.621 106.928 538.575 118.882 553.321 118.882Z" fill="#F2F2F2"/>
<path id="Vector_2" d="M760.448 515.152C800.135 484.923 819.091 434.126 807.224 385.67C806.929 384.466 806.618 383.264 806.29 382.066C798.423 353.302 778.959 325.965 750.59 316.774C726.771 309.058 700.771 314.992 675.921 311.923C627.139 305.899 589.32 266.429 562.71 225.104C536.099 183.778 515.648 137.52 480.288 103.38C422.003 47.1042 326.926 34.9881 254.661 71.6191C182.397 108.25 136.365 189.519 138.328 270.514C140.291 351.509 188.374 428.946 258.203 470.031C283.855 485.124 313.524 495.817 343.051 492.075C368.671 488.829 391.95 475.063 417.45 470.976C457.541 464.55 497.377 482.676 532.052 503.799C566.728 524.922 600.223 549.959 639.627 559.752C677.888 569.26 725.29 541.93 760.448 515.152Z" fill="#F2F2F2"/>
<path id="Vector_3" d="M703.426 73.3199C702.556 72.7399 701.676 72.1899 700.806 71.6299C675.657 55.5457 648.701 42.4791 620.496 32.6999L613.956 122.92H572.496V19.5299C569.886 18.9899 567.256 18.4799 564.626 17.9999V122.92H515.356C488.232 122.92 462.219 112.145 443.04 92.9658C423.861 73.7865 413.086 47.7737 413.086 20.6501V20.65C410.446 21.22 407.826 21.83 405.206 22.48V122.92H365.076L358.846 36.89C329.861 48.0062 302.343 62.6247 276.906 80.42C276.466 80.72 276.026 81.03 275.596 81.33C273.386 82.88 271.206 84.46 269.036 86.06V430.25H387.306L385.216 401.3L373.716 242.35H605.306L593.806 401.3L591.716 430.25H708.676V76.8C706.936 75.62 705.186 74.46 703.426 73.3199ZM405.206 216.1H371.816L365.646 130.8H405.206V216.1ZM564.626 216.1H508.546V214.41C508.546 213.598 508.386 212.793 508.075 212.043C507.763 211.292 507.307 210.61 506.732 210.036C506.157 209.462 505.475 209.007 504.724 208.697C503.973 208.387 503.168 208.229 502.356 208.23H477.976C477.164 208.23 476.361 208.389 475.611 208.7C474.861 209.01 474.179 209.465 473.605 210.039C473.031 210.613 472.576 211.295 472.266 212.045C471.955 212.795 471.796 213.598 471.796 214.41V216.1H413.086V130.8H564.626V216.1ZM572.496 216.1V130.8H613.386L607.216 216.1H572.496Z" fill="#3F3D56"/>
<path id="Vector_4" d="M94.9999 452.291C103.687 462.584 113.083 472.258 123.12 481.241L853.7 482.241C863.736 473.258 873.133 463.584 881.82 453.291L94.9999 452.291Z" fill="#3F3D56"/>
<path id="Vector_5" d="M590.43 359.591V445.295C590.431 446.387 590.865 447.435 591.637 448.207C592.41 448.979 593.457 449.414 594.549 449.414H721.553C722.646 449.414 723.693 448.979 724.465 448.207C725.237 447.435 725.672 446.387 725.673 445.295V359.591C725.67 358.5 725.235 357.454 724.463 356.683C723.691 355.912 722.645 355.478 721.553 355.477H594.549C593.458 355.478 592.412 355.912 591.639 356.683C590.867 357.454 590.433 358.5 590.43 359.591Z" fill="#3F3D56"/>
<path id="Vector_6" d="M593.409 360.658V444.238C593.41 444.822 593.643 445.381 594.055 445.794C594.468 446.206 595.027 446.438 595.611 446.439H720.496C721.08 446.438 721.639 446.206 722.052 445.794C722.464 445.381 722.697 444.822 722.698 444.238V360.658C722.698 360.073 722.466 359.513 722.053 359.099C721.64 358.686 721.08 358.453 720.496 358.452H595.611C595.027 358.453 594.467 358.686 594.054 359.099C593.641 359.513 593.409 360.073 593.409 360.658Z" fill="#00BFA6"/>
<path id="Vector_7" d="M587.774 462.01C588.006 462.302 588.302 462.537 588.639 462.698C588.975 462.859 589.344 462.942 589.717 462.94H725.709C726.081 462.939 726.448 462.856 726.784 462.696C727.119 462.536 727.415 462.303 727.649 462.014C727.884 461.725 728.051 461.387 728.138 461.026C728.226 460.664 728.232 460.288 728.155 459.924L726.044 449.897C725.957 449.488 725.768 449.107 725.496 448.79C725.224 448.472 724.877 448.228 724.486 448.079C724.203 447.968 723.902 447.911 723.598 447.911H591.82C591.516 447.911 591.215 447.968 590.932 448.079C590.541 448.228 590.194 448.472 589.922 448.79C589.65 449.107 589.461 449.488 589.374 449.897L587.263 459.924C587.188 460.288 587.195 460.664 587.283 461.025C587.371 461.385 587.539 461.722 587.774 462.01Z" fill="#2F2E41"/>
<path id="Vector_8" d="M718.932 452.23H722.144C722.414 452.23 722.632 452.012 722.632 451.742V450.205C722.632 449.936 722.414 449.717 722.144 449.717H718.932C718.662 449.717 718.444 449.936 718.444 450.205V451.742C718.444 452.012 718.662 452.23 718.932 452.23Z" fill="#3F3D56"/>
<path id="Vector_9" d="M710.555 452.23H713.767C714.037 452.23 714.255 452.012 714.255 451.742V450.205C714.255 449.936 714.037 449.717 713.767 449.717H710.555C710.285 449.717 710.067 449.936 710.067 450.205V451.742C710.067 452.012 710.285 452.23 710.555 452.23Z" fill="#3F3D56"/>
<path id="Vector_10" d="M702.178 452.23H705.39C705.66 452.23 705.878 452.012 705.878 451.742V450.205C705.878 449.936 705.66 449.717 705.39 449.717H702.178C701.908 449.717 701.69 449.936 701.69 450.205V451.742C701.69 452.012 701.908 452.23 702.178 452.23Z" fill="#3F3D56"/>
<path id="Vector_11" d="M693.801 452.23H697.013C697.283 452.23 697.501 452.012 697.501 451.742V450.205C697.501 449.936 697.283 449.717 697.013 449.717H693.801C693.531 449.717 693.313 449.936 693.313 450.205V451.742C693.313 452.012 693.531 452.23 693.801 452.23Z" fill="#3F3D56"/>
<path id="Vector_12" d="M685.424 452.23H688.636C688.906 452.23 689.124 452.012 689.124 451.742V450.205C689.124 449.936 688.906 449.717 688.636 449.717H685.424C685.154 449.717 684.936 449.936 684.936 450.205V451.742C684.936 452.012 685.154 452.23 685.424 452.23Z" fill="#3F3D56"/>
<path id="Vector_13" d="M677.047 452.23H680.259C680.529 452.23 680.747 452.012 680.747 451.742V450.205C680.747 449.936 680.529 449.717 680.259 449.717H677.047C676.777 449.717 676.559 449.936 676.559 450.205V451.742C676.559 452.012 676.777 452.23 677.047 452.23Z" fill="#3F3D56"/>
<path id="Vector_14" d="M668.67 452.23H671.882C672.152 452.23 672.37 452.012 672.37 451.742V450.205C672.37 449.936 672.152 449.717 671.882 449.717H668.67C668.4 449.717 668.182 449.936 668.182 450.205V451.742C668.182 452.012 668.4 452.23 668.67 452.23Z" fill="#3F3D56"/>
<path id="Vector_15" d="M660.293 452.23H663.505C663.775 452.23 663.993 452.012 663.993 451.742V450.205C663.993 449.936 663.775 449.717 663.505 449.717H660.293C660.023 449.717 659.805 449.936 659.805 450.205V451.742C659.805 452.012 660.023 452.23 660.293 452.23Z" fill="#3F3D56"/>
<path id="Vector_16" d="M651.916 452.23H655.128C655.398 452.23 655.616 452.012 655.616 451.742V450.205C655.616 449.936 655.398 449.717 655.128 449.717H651.916C651.647 449.717 651.428 449.936 651.428 450.205V451.742C651.428 452.012 651.647 452.23 651.916 452.23Z" fill="#3F3D56"/>
<path id="Vector_17" d="M643.539 452.23H646.751C647.021 452.23 647.239 452.012 647.239 451.742V450.205C647.239 449.936 647.021 449.717 646.751 449.717H643.539C643.27 449.717 643.051 449.936 643.051 450.205V451.742C643.051 452.012 643.27 452.23 643.539 452.23Z" fill="#3F3D56"/>
<path id="Vector_18" d="M635.162 452.23H638.374C638.644 452.23 638.862 452.012 638.862 451.742V450.205C638.862 449.936 638.644 449.717 638.374 449.717H635.162C634.892 449.717 634.674 449.936 634.674 450.205V451.742C634.674 452.012 634.892 452.23 635.162 452.23Z" fill="#3F3D56"/>
<path id="Vector_19" d="M626.785 452.23H629.997C630.267 452.23 630.485 452.012 630.485 451.742V450.205C630.485 449.936 630.267 449.717 629.997 449.717H626.785C626.516 449.717 626.297 449.936 626.297 450.205V451.742C626.297 452.012 626.516 452.23 626.785 452.23Z" fill="#3F3D56"/>
<path id="Vector_20" d="M618.408 452.23H621.62C621.89 452.23 622.108 452.012 622.108 451.742V450.205C622.108 449.936 621.89 449.717 621.62 449.717H618.408C618.139 449.717 617.92 449.936 617.92 450.205V451.742C617.92 452.012 618.139 452.23 618.408 452.23Z" fill="#3F3D56"/>
<path id="Vector_21" d="M610.031 452.23H613.243C613.513 452.23 613.732 452.012 613.732 451.742V450.205C613.732 449.936 613.513 449.717 613.243 449.717H610.031C609.762 449.717 609.543 449.936 609.543 450.205V451.742C609.543 452.012 609.762 452.23 610.031 452.23Z" fill="#3F3D56"/>
<path id="Vector_22" d="M601.654 452.23H604.866C605.136 452.23 605.355 452.012 605.355 451.742V450.205C605.355 449.936 605.136 449.717 604.866 449.717H601.654C601.385 449.717 601.166 449.936 601.166 450.205V451.742C601.166 452.012 601.385 452.23 601.654 452.23Z" fill="#3F3D56"/>
<path id="Vector_23" d="M593.277 452.23H596.489C596.759 452.23 596.977 452.012 596.977 451.742V450.205C596.977 449.936 596.759 449.717 596.489 449.717H593.277C593.008 449.717 592.789 449.936 592.789 450.205V451.742C592.789 452.012 593.008 452.23 593.277 452.23Z" fill="#3F3D56"/>
<path id="Vector_24" d="M719.031 456.419H722.243C722.513 456.419 722.731 456.2 722.731 455.931V454.394C722.731 454.124 722.513 453.906 722.243 453.906H719.031C718.761 453.906 718.543 454.124 718.543 454.394V455.931C718.543 456.2 718.761 456.419 719.031 456.419Z" fill="#3F3D56"/>
<path id="Vector_25" d="M710.654 456.419H713.866C714.136 456.419 714.354 456.2 714.354 455.931V454.394C714.354 454.124 714.136 453.906 713.866 453.906H710.654C710.384 453.906 710.166 454.124 710.166 454.394V455.931C710.166 456.2 710.384 456.419 710.654 456.419Z" fill="#3F3D56"/>
<path id="Vector_26" d="M702.277 456.419H705.489C705.759 456.419 705.977 456.2 705.977 455.931V454.394C705.977 454.124 705.759 453.906 705.489 453.906H702.277C702.007 453.906 701.789 454.124 701.789 454.394V455.931C701.789 456.2 702.007 456.419 702.277 456.419Z" fill="#3F3D56"/>
<path id="Vector_27" d="M693.9 456.419H697.112C697.382 456.419 697.6 456.2 697.6 455.931V454.394C697.6 454.124 697.382 453.906 697.112 453.906H693.9C693.63 453.906 693.412 454.124 693.412 454.394V455.931C693.412 456.2 693.63 456.419 693.9 456.419Z" fill="#3F3D56"/>
<path id="Vector_28" d="M685.523 456.419H688.735C689.005 456.419 689.223 456.2 689.223 455.931V454.394C689.223 454.124 689.005 453.906 688.735 453.906H685.523C685.253 453.906 685.035 454.124 685.035 454.394V455.931C685.035 456.2 685.253 456.419 685.523 456.419Z" fill="#3F3D56"/>
<path id="Vector_29" d="M677.146 456.419H680.358C680.628 456.419 680.846 456.2 680.846 455.931V454.394C680.846 454.124 680.628 453.906 680.358 453.906H677.146C676.876 453.906 676.658 454.124 676.658 454.394V455.931C676.658 456.2 676.876 456.419 677.146 456.419Z" fill="#3F3D56"/>
<path id="Vector_30" d="M668.769 456.419H671.981C672.251 456.419 672.469 456.2 672.469 455.931V454.394C672.469 454.124 672.251 453.906 671.981 453.906H668.769C668.499 453.906 668.281 454.124 668.281 454.394V455.931C668.281 456.2 668.499 456.419 668.769 456.419Z" fill="#3F3D56"/>
<path id="Vector_31" d="M660.392 456.419H663.604C663.874 456.419 664.092 456.2 664.092 455.931V454.394C664.092 454.124 663.874 453.906 663.604 453.906H660.392C660.122 453.906 659.904 454.124 659.904 454.394V455.931C659.904 456.2 660.122 456.419 660.392 456.419Z" fill="#3F3D56"/>
<path id="Vector_32" d="M652.015 456.419H655.227C655.497 456.419 655.715 456.2 655.715 455.931V454.394C655.715 454.124 655.497 453.906 655.227 453.906H652.015C651.745 453.906 651.527 454.124 651.527 454.394V455.931C651.527 456.2 651.745 456.419 652.015 456.419Z" fill="#3F3D56"/>
<path id="Vector_33" d="M643.638 456.419H646.85C647.12 456.419 647.338 456.2 647.338 455.931V454.394C647.338 454.124 647.12 453.906 646.85 453.906H643.638C643.369 453.906 643.15 454.124 643.15 454.394V455.931C643.15 456.2 643.369 456.419 643.638 456.419Z" fill="#3F3D56"/>
<path id="Vector_34" d="M635.261 456.419H638.473C638.743 456.419 638.961 456.2 638.961 455.931V454.394C638.961 454.124 638.743 453.906 638.473 453.906H635.261C634.991 453.906 634.773 454.124 634.773 454.394V455.931C634.773 456.2 634.991 456.419 635.261 456.419Z" fill="#3F3D56"/>
<path id="Vector_35" d="M626.884 456.419H630.096C630.366 456.419 630.584 456.2 630.584 455.931V454.394C630.584 454.124 630.366 453.906 630.096 453.906H626.884C626.615 453.906 626.396 454.124 626.396 454.394V455.931C626.396 456.2 626.615 456.419 626.884 456.419Z" fill="#3F3D56"/>
<path id="Vector_36" d="M618.507 456.419H621.719C621.989 456.419 622.207 456.2 622.207 455.931V454.394C622.207 454.124 621.989 453.906 621.719 453.906H618.507C618.238 453.906 618.019 454.124 618.019 454.394V455.931C618.019 456.2 618.238 456.419 618.507 456.419Z" fill="#3F3D56"/>
<path id="Vector_37" d="M610.13 456.419H613.342C613.612 456.419 613.831 456.2 613.831 455.931V454.394C613.831 454.124 613.612 453.906 613.342 453.906H610.13C609.861 453.906 609.642 454.124 609.642 454.394V455.931C609.642 456.2 609.861 456.419 610.13 456.419Z" fill="#3F3D56"/>
<path id="Vector_38" d="M601.753 456.419H604.965C605.235 456.419 605.453 456.2 605.453 455.931V454.394C605.453 454.124 605.235 453.906 604.965 453.906H601.753C601.484 453.906 601.265 454.124 601.265 454.394V455.931C601.265 456.2 601.484 456.419 601.753 456.419Z" fill="#3F3D56"/>
<path id="Vector_39" d="M593.376 456.419H596.588C596.858 456.419 597.077 456.2 597.077 455.931V454.394C597.077 454.124 596.858 453.906 596.588 453.906H593.376C593.107 453.906 592.888 454.124 592.888 454.394V455.931C592.888 456.2 593.107 456.419 593.376 456.419Z" fill="#3F3D56"/>
<path id="Vector_40" d="M649.502 461.445H682.034C682.303 461.445 682.522 461.226 682.522 460.957V459.42C682.522 459.151 682.303 458.932 682.034 458.932H649.502C649.232 458.932 649.014 459.151 649.014 459.42V460.957C649.014 461.226 649.232 461.445 649.502 461.445Z" fill="#3F3D56"/>
<path id="Vector_41" d="M599.917 508.482L586.568 487.38L628.47 453.977L645.765 434.816C648.012 432.327 650.873 430.471 654.062 429.433C657.251 428.396 660.657 428.214 663.938 428.905C667.22 429.596 670.262 431.136 672.762 433.372C675.262 435.607 677.131 438.46 678.183 441.644C679.742 446.363 679.407 451.502 677.248 455.979C675.089 460.455 671.276 463.917 666.613 465.635L639.264 475.71L599.917 508.482Z" fill="#FFB6B6"/>
<path id="Vector_42" d="M286.69 355.481V458.041H358.54V355.481C358.541 354.743 358.306 354.025 357.868 353.431C357.431 352.837 356.815 352.399 356.11 352.181C355.778 352.071 355.43 352.017 355.08 352.021H290.16C289.705 352.02 289.254 352.109 288.833 352.282C288.413 352.456 288.03 352.71 287.708 353.032C287.386 353.353 287.13 353.735 286.955 354.155C286.781 354.575 286.69 355.026 286.69 355.481ZM314.73 390.721C314.749 388.699 315.565 386.766 317.001 385.343C318.438 383.92 320.378 383.122 322.4 383.122C324.422 383.122 326.362 383.92 327.798 385.343C329.235 386.766 330.051 388.699 330.07 390.721V402.621C330.06 404.648 329.247 406.589 327.81 408.019C326.372 409.449 324.427 410.252 322.4 410.252C320.373 410.252 318.428 409.449 316.99 408.019C315.553 406.589 314.74 404.648 314.73 402.621V390.721Z" fill="#2F2E41"/>
<path id="Vector_43" d="M286.47 454.761V464.651C286.472 465.163 286.675 465.654 287.036 466.017C287.398 466.381 287.888 466.587 288.4 466.591H356.83C357.343 466.588 357.834 466.383 358.195 466.019C358.557 465.656 358.76 465.164 358.76 464.651V454.761H286.47Z" fill="#3F3D56"/>
<path id="Vector_44" d="M173.66 200.961V388.221C173.662 390.607 174.611 392.895 176.298 394.583C177.986 396.27 180.274 397.219 182.66 397.221H460.16C462.546 397.219 464.834 396.27 466.522 394.583C468.209 392.895 469.158 390.607 469.16 388.221V200.961C469.154 198.577 468.204 196.292 466.517 194.607C464.83 192.922 462.544 191.974 460.16 191.971H182.66C180.276 191.974 177.99 192.922 176.303 194.607C174.616 196.292 173.666 198.577 173.66 200.961Z" fill="#3F3D56"/>
<path id="Vector_45" d="M180.17 203.291V385.911C180.172 387.186 180.68 388.408 181.581 389.31C182.483 390.211 183.705 390.719 184.98 390.721H457.85C459.125 390.719 460.347 390.211 461.249 389.31C462.15 388.408 462.658 387.186 462.66 385.911V203.291C462.66 202.014 462.153 200.79 461.252 199.886C460.35 198.983 459.127 198.474 457.85 198.471H184.98C183.703 198.474 182.48 198.983 181.578 199.886C180.677 200.79 180.17 202.014 180.17 203.291Z" fill="white"/>
<path id="Vector_46" d="M230.81 465.921C231.088 466.269 231.441 466.55 231.843 466.742C232.244 466.934 232.685 467.033 233.13 467.031H395.47C395.914 467.03 396.352 466.931 396.753 466.74C397.154 466.548 397.507 466.27 397.786 465.925C398.066 465.581 398.265 465.178 398.37 464.746C398.474 464.315 398.481 463.865 398.39 463.431L395.87 451.461C395.766 450.973 395.541 450.518 395.216 450.139C394.891 449.76 394.476 449.469 394.01 449.291C393.672 449.158 393.313 449.09 392.95 449.091H235.64C235.277 449.09 234.918 449.158 234.58 449.291C234.114 449.469 233.699 449.76 233.374 450.139C233.049 450.518 232.824 450.973 232.72 451.461L230.2 463.431C230.11 463.865 230.119 464.314 230.224 464.745C230.33 465.175 230.53 465.577 230.81 465.921Z" fill="#2F2E41"/>
<path id="Vector_47" d="M448.995 223.628H193.671C193.406 223.622 193.153 223.512 192.968 223.322C192.782 223.133 192.678 222.878 192.678 222.612C192.678 222.347 192.782 222.092 192.968 221.902C193.153 221.712 193.406 221.603 193.671 221.597H448.995C449.26 221.603 449.512 221.712 449.698 221.902C449.884 222.092 449.988 222.347 449.988 222.612C449.988 222.878 449.884 223.133 449.698 223.322C449.512 223.512 449.26 223.622 448.995 223.628Z" fill="#3F3D56"/>
<path id="Vector_48" d="M211.051 216.413C214.338 216.413 217.002 213.689 217.002 210.33C217.002 206.97 214.338 204.247 211.051 204.247C207.765 204.247 205.101 206.97 205.101 210.33C205.101 213.689 207.765 216.413 211.051 216.413Z" fill="#3F3D56"/>
<path id="Vector_49" d="M231.607 216.413C234.894 216.413 237.558 213.689 237.558 210.33C237.558 206.97 234.894 204.247 231.607 204.247C228.321 204.247 225.657 206.97 225.657 210.33C225.657 213.689 228.321 216.413 231.607 216.413Z" fill="#3F3D56"/>
<path id="Vector_50" d="M252.163 216.413C255.45 216.413 258.114 213.689 258.114 210.33C258.114 206.97 255.45 204.247 252.163 204.247C248.877 204.247 246.213 206.97 246.213 210.33C246.213 213.689 248.877 216.413 252.163 216.413Z" fill="#3F3D56"/>
<path id="Vector_51" d="M436.616 205.751H422.016C421.728 205.758 421.453 205.877 421.251 206.083C421.05 206.29 420.937 206.567 420.937 206.856C420.937 207.145 421.05 207.422 421.251 207.628C421.453 207.835 421.728 207.954 422.016 207.961H436.616C436.907 207.957 437.184 207.839 437.388 207.632C437.592 207.425 437.706 207.146 437.706 206.856C437.706 206.565 437.592 206.287 437.388 206.08C437.184 205.873 436.907 205.755 436.616 205.751Z" fill="#3F3D56"/>
<path id="Vector_52" d="M436.616 209.901H422.016C421.728 209.907 421.453 210.027 421.251 210.233C421.049 210.44 420.935 210.717 420.935 211.006C420.935 211.295 421.049 211.572 421.251 211.779C421.453 211.985 421.728 212.104 422.016 212.111H436.616C436.907 212.107 437.185 211.989 437.389 211.783C437.594 211.576 437.708 211.297 437.708 211.006C437.708 210.715 437.594 210.436 437.389 210.229C437.185 210.022 436.907 209.904 436.616 209.901Z" fill="#3F3D56"/>
<g id="Arrow">
<path id="Vector_53" d="M615.036 376.737H612.192C611.33 376.737 610.631 377.436 610.631 378.298C610.631 379.16 611.33 379.859 612.192 379.859H615.036C615.898 379.859 616.597 379.16 616.597 378.298C616.597 377.436 615.898 376.737 615.036 376.737Z" fill="white"/>
<path id="Vector_54" d="M647.559 376.737H644.715C643.853 376.737 643.154 377.436 643.154 378.298C643.154 379.16 643.853 379.859 644.715 379.859H647.559C648.421 379.859 649.12 379.16 649.12 378.298C649.12 377.436 648.421 376.737 647.559 376.737Z" fill="white"/>
<path id="Vector_55" d="M656.774 376.737H653.93C653.068 376.737 652.369 377.436 652.369 378.298C652.369 379.16 653.068 379.859 653.93 379.859H656.774C657.636 379.859 658.335 379.16 658.335 378.298C658.335 377.436 657.636 376.737 656.774 376.737Z" fill="white"/>
<path id="Vector_56" d="M638.712 376.477H621.039C620.176 376.477 619.477 377.176 619.477 378.038C619.477 378.9 620.176 379.599 621.039 379.599H638.712C639.575 379.599 640.274 378.9 640.274 378.038C640.274 377.176 639.575 376.477 638.712 376.477Z" fill="white"/>
<path id="Vector_57" d="M682.076 376.477H664.403C663.54 376.477 662.841 377.176 662.841 378.038C662.841 378.9 663.54 379.599 664.403 379.599H682.076C682.939 379.599 683.638 378.9 683.638 378.038C683.638 377.176 682.939 376.477 682.076 376.477Z" fill="white"/>
<path id="Vector_58" d="M623.709 383.784H620.865C620.003 383.784 619.304 384.483 619.304 385.345C619.304 386.207 620.003 386.906 620.865 386.906H623.709C624.571 386.906 625.27 386.207 625.27 385.345C625.27 384.483 624.571 383.784 623.709 383.784Z" fill="white"/>
<path id="Vector_59" d="M656.232 383.784H653.388C652.526 383.784 651.827 384.483 651.827 385.345C651.827 386.207 652.526 386.906 653.388 386.906H656.232C657.094 386.906 657.793 386.207 657.793 385.345C657.793 384.483 657.094 383.784 656.232 383.784Z" fill="white"/>
<path id="Vector_60" d="M665.446 383.784H662.603C661.741 383.784 661.042 384.483 661.042 385.345C661.042 386.207 661.741 386.906 662.603 386.906H665.446C666.309 386.906 667.008 386.207 667.008 385.345C667.008 384.483 666.309 383.784 665.446 383.784Z" fill="white"/>
<path id="Vector_61" d="M647.385 383.523H629.711C628.849 383.523 628.15 384.222 628.15 385.085C628.15 385.947 628.849 386.646 629.711 386.646H647.385C648.247 386.646 648.946 385.947 648.946 385.085C648.946 384.222 648.247 383.523 647.385 383.523Z" fill="white"/>
<path id="Vector_62" d="M690.749 383.523H673.075C672.213 383.523 671.514 384.222 671.514 385.085C671.514 385.947 672.213 386.646 673.075 386.646H690.749C691.611 386.646 692.31 385.947 692.31 385.085C692.31 384.222 691.611 383.523 690.749 383.523Z" fill="white"/>
<path id="Vector_63" d="M632.381 390.83H629.538C628.676 390.83 627.977 391.529 627.977 392.391C627.977 393.254 628.676 393.953 629.538 393.953H632.381C633.244 393.953 633.943 393.254 633.943 392.391C633.943 391.529 633.244 390.83 632.381 390.83Z" fill="white"/>
<path id="Vector_64" d="M664.904 390.83H662.061C661.199 390.83 660.5 391.529 660.5 392.391C660.5 393.254 661.199 393.953 662.061 393.953H664.904C665.767 393.953 666.466 393.254 666.466 392.391C666.466 391.529 665.767 390.83 664.904 390.83Z" fill="white"/>
<path id="Vector_65" d="M674.119 390.83H671.276C670.413 390.83 669.715 391.529 669.715 392.391C669.715 393.254 670.413 393.953 671.276 393.953H674.119C674.981 393.953 675.68 393.254 675.68 392.391C675.68 391.529 674.981 390.83 674.119 390.83Z" fill="white"/>
<path id="Vector_66" d="M656.058 390.57H638.384C637.522 390.57 636.823 391.269 636.823 392.131C636.823 392.993 637.522 393.692 638.384 393.692H656.058C656.92 393.692 657.619 392.993 657.619 392.131C657.619 391.269 656.92 390.57 656.058 390.57Z" fill="white"/>
<path id="Vector_67" d="M699.422 390.57H681.748C680.886 390.57 680.187 391.269 680.187 392.131C680.187 392.993 680.886 393.692 681.748 393.692H699.422C700.284 393.692 700.983 392.993 700.983 392.131C700.983 391.269 700.284 390.57 699.422 390.57Z" fill="white"/>
<path id="Vector_68" d="M641.054 397.877H638.211C637.348 397.877 636.649 398.576 636.649 399.438C636.649 400.3 637.348 400.999 638.211 400.999H641.054C641.916 400.999 642.615 400.3 642.615 399.438C642.615 398.576 641.916 397.877 641.054 397.877Z" fill="white"/>
<path id="Vector_69" d="M673.577 397.877H670.734C669.871 397.877 669.172 398.576 669.172 399.438C669.172 400.3 669.871 400.999 670.734 400.999H673.577C674.439 400.999 675.138 400.3 675.138 399.438C675.138 398.576 674.439 397.877 673.577 397.877Z" fill="white"/>
<path id="Vector_70" d="M682.792 397.877H679.948C679.086 397.877 678.387 398.576 678.387 399.438C678.387 400.3 679.086 400.999 679.948 400.999H682.792C683.654 400.999 684.353 400.3 684.353 399.438C684.353 398.576 683.654 397.877 682.792 397.877Z" fill="white"/>
<path id="Vector_71" d="M664.731 397.617H647.057C646.195 397.617 645.496 398.316 645.496 399.178C645.496 400.04 646.195 400.739 647.057 400.739H664.731C665.593 400.739 666.292 400.04 666.292 399.178C666.292 398.316 665.593 397.617 664.731 397.617Z" fill="white"/>
<path id="Vector_72" d="M647.559 425.898H644.715C643.853 425.898 643.154 426.596 643.154 427.459C643.154 428.321 643.853 429.02 644.715 429.02H647.559C648.421 429.02 649.12 428.321 649.12 427.459C649.12 426.596 648.421 425.898 647.559 425.898Z" fill="white"/>
<path id="Vector_73" d="M656.774 425.898H653.93C653.068 425.898 652.369 426.596 652.369 427.459C652.369 428.321 653.068 429.02 653.93 429.02H656.774C657.636 429.02 658.335 428.321 658.335 427.459C658.335 426.596 657.636 425.898 656.774 425.898Z" fill="white"/>
<path id="Vector_74" d="M682.076 426.158H664.403C663.54 426.158 662.841 426.857 662.841 427.719C662.841 428.581 663.54 429.28 664.403 429.28H682.076C682.939 429.28 683.638 428.581 683.638 427.719C683.638 426.857 682.939 426.158 682.076 426.158Z" fill="white"/>
<path id="Vector_75" d="M615.036 425.898H612.192C611.33 425.898 610.631 426.596 610.631 427.459C610.631 428.321 611.33 429.02 612.192 429.02H615.036C615.898 429.02 616.597 428.321 616.597 427.459C616.597 426.596 615.898 425.898 615.036 425.898Z" fill="white"/>
<path id="Vector_76" d="M638.712 426.158H621.039C620.176 426.158 619.477 426.857 619.477 427.719C619.477 428.581 620.176 429.28 621.039 429.28H638.712C639.575 429.28 640.274 428.581 640.274 427.719C640.274 426.857 639.575 426.158 638.712 426.158Z" fill="white"/>
<path id="Vector_77" d="M623.709 418.851H620.865C620.003 418.851 619.304 419.55 619.304 420.412C619.304 421.274 620.003 421.973 620.865 421.973H623.709C624.571 421.973 625.27 421.274 625.27 420.412C625.27 419.55 624.571 418.851 623.709 418.851Z" fill="white"/>
<path id="Vector_78" d="M656.232 418.851H653.388C652.526 418.851 651.827 419.55 651.827 420.412C651.827 421.274 652.526 421.973 653.388 421.973H656.232C657.094 421.973 657.793 421.274 657.793 420.412C657.793 419.55 657.094 418.851 656.232 418.851Z" fill="white"/>
<path id="Vector_79" d="M665.446 418.851H662.603C661.741 418.851 661.042 419.55 661.042 420.412C661.042 421.274 661.741 421.973 662.603 421.973H665.446C666.309 421.973 667.008 421.274 667.008 420.412C667.008 419.55 666.309 418.851 665.446 418.851Z" fill="white"/>
<path id="Vector_80" d="M647.385 419.111H629.711C628.849 419.111 628.15 419.81 628.15 420.672C628.15 421.534 628.849 422.233 629.711 422.233H647.385C648.247 422.233 648.946 421.534 648.946 420.672C648.946 419.81 648.247 419.111 647.385 419.111Z" fill="white"/>
<path id="Vector_81" d="M632.381 411.804H629.538C628.676 411.804 627.977 412.503 627.977 413.365C627.977 414.227 628.676 414.926 629.538 414.926H632.381C633.244 414.926 633.943 414.227 633.943 413.365C633.943 412.503 633.244 411.804 632.381 411.804Z" fill="white"/>
<path id="Vector_82" d="M664.904 411.804H662.061C661.199 411.804 660.5 412.503 660.5 413.365C660.5 414.227 661.199 414.926 662.061 414.926H664.904C665.767 414.926 666.466 414.227 666.466 413.365C666.466 412.503 665.767 411.804 664.904 411.804Z" fill="white"/>
<path id="Vector_83" d="M674.119 411.804H671.276C670.413 411.804 669.715 412.503 669.715 413.365C669.715 414.227 670.413 414.926 671.276 414.926H674.119C674.981 414.926 675.68 414.227 675.68 413.365C675.68 412.503 674.981 411.804 674.119 411.804Z" fill="white"/>
<path id="Vector_84" d="M656.058 412.064H638.384C637.522 412.064 636.823 412.763 636.823 413.626C636.823 414.488 637.522 415.187 638.384 415.187H656.058C656.92 415.187 657.619 414.488 657.619 413.626C657.619 412.763 656.92 412.064 656.058 412.064Z" fill="white"/>
<path id="Vector_85" d="M641.054 404.758H638.211C637.348 404.758 636.649 405.456 636.649 406.319C636.649 407.181 637.348 407.88 638.211 407.88H641.054C641.916 407.88 642.615 407.181 642.615 406.319C642.615 405.456 641.916 404.758 641.054 404.758Z" fill="white"/>
<path id="Vector_86" d="M673.577 404.758H670.734C669.871 404.758 669.172 405.456 669.172 406.319C669.172 407.181 669.871 407.88 670.734 407.88H673.577C674.439 407.88 675.138 407.181 675.138 406.319C675.138 405.456 674.439 404.758 673.577 404.758Z" fill="white"/>
<path id="Vector_87" d="M682.792 404.758H679.948C679.086 404.758 678.387 405.456 678.387 406.319C678.387 407.181 679.086 407.88 679.948 407.88H682.792C683.654 407.88 684.353 407.181 684.353 406.319C684.353 405.456 683.654 404.758 682.792 404.758Z" fill="white"/>
<path id="Vector_88" d="M664.731 405.018H647.057C646.195 405.018 645.496 405.717 645.496 406.579C645.496 407.441 646.195 408.14 647.057 408.14H664.731C665.593 408.14 666.292 407.441 666.292 406.579C666.292 405.717 665.593 405.018 664.731 405.018Z" fill="white"/>
</g>
<path id="Vector_89" d="M436.616 214.051H422.016C421.728 214.058 421.453 214.177 421.251 214.383C421.05 214.59 420.937 214.867 420.937 215.156C420.937 215.445 421.05 215.722 421.251 215.928C421.453 216.135 421.728 216.254 422.016 216.261H436.616C436.907 216.257 437.184 216.138 437.388 215.932C437.592 215.725 437.706 215.446 437.706 215.156C437.706 214.865 437.592 214.587 437.388 214.38C437.184 214.173 436.907 214.055 436.616 214.051Z" fill="#3F3D56"/>
<path id="Vector_90" d="M788.596 459.101C789.036 460.384 789.872 461.494 790.983 462.272C792.094 463.05 793.423 463.457 794.779 463.432L821.271 462.75C822.637 462.724 823.957 462.256 825.035 461.417C826.113 460.577 826.891 459.411 827.252 458.094L831 418.006C832.33 418.609 833.778 418.906 835.238 418.877C836.507 418.845 837.756 418.564 838.916 418.049C840.076 417.534 841.122 416.796 841.997 415.877C842.871 414.957 843.556 413.875 844.012 412.691C844.468 411.507 844.686 410.245 844.654 408.976C844.622 407.708 844.341 406.458 843.826 405.299C843.311 404.139 842.573 403.092 841.654 402.218C840.735 401.344 839.652 400.659 838.468 400.203C837.284 399.747 836.022 399.529 834.753 399.56C834.17 399.559 833.588 399.619 833.017 399.741C832.397 399.07 831.642 398.536 830.803 398.173C829.963 397.811 829.057 397.629 828.143 397.638L787.393 398.69C787.055 398.703 786.718 398.745 786.388 398.815C785.494 398.982 784.646 399.338 783.902 399.859C783.157 400.381 782.533 401.056 782.071 401.839C781.61 402.622 781.321 403.495 781.225 404.399C781.129 405.303 781.228 406.217 781.514 407.08L788.596 459.101ZM831.769 415.284L834.437 405.732C834.74 404.628 834.747 403.464 834.457 402.357C834.587 402.357 834.701 402.295 834.83 402.295C836.659 402.257 838.429 402.946 839.751 404.211C841.073 405.476 841.839 407.213 841.882 409.042C841.925 410.871 841.24 412.643 839.979 413.968C838.718 415.293 836.983 416.064 835.154 416.112C833.971 416.149 832.801 415.863 831.769 415.284Z" fill="#2F2E41"/>
<path id="Vector_91" d="M786.388 398.815C787.256 403.779 797.017 407.269 808.753 406.662C819.546 406.165 828.371 402.375 829.988 397.884C829.389 397.707 828.767 397.624 828.143 397.638L787.393 398.69C787.055 398.703 786.718 398.745 786.388 398.815Z" fill="#3F3D56"/>
<g id="Coffee_mug">
<path id="Vector_92" d="M810.904 437.073C810.958 437.059 811.009 437.037 811.055 437.007L816.808 433.241C816.878 433.196 816.935 433.134 816.975 433.061C817.014 432.988 817.035 432.906 817.035 432.823C817.035 432.74 817.014 432.658 816.975 432.585C816.935 432.512 816.878 432.45 816.809 432.405L810.829 428.488C810.774 428.452 810.713 428.427 810.648 428.414C810.583 428.402 810.517 428.402 810.452 428.415C810.388 428.429 810.327 428.454 810.272 428.491C810.218 428.528 810.171 428.576 810.135 428.631C810.099 428.686 810.074 428.747 810.062 428.812C810.05 428.877 810.051 428.943 810.064 429.008C810.078 429.072 810.104 429.133 810.141 429.187C810.178 429.242 810.226 429.288 810.281 429.324L815.622 432.822L810.508 436.17C810.409 436.235 810.336 436.333 810.302 436.446C810.269 436.559 810.276 436.681 810.324 436.789C810.371 436.898 810.456 436.986 810.562 437.038C810.668 437.089 810.79 437.102 810.904 437.073H810.904Z" fill="#00BFA6"/>
<path id="Vector_93" d="M801.818 437.492C801.914 437.468 802.001 437.415 802.068 437.341C802.134 437.266 802.177 437.174 802.19 437.075C802.204 436.977 802.188 436.876 802.144 436.787C802.1 436.697 802.03 436.623 801.944 436.574L796.641 433.533L801.766 429.726C801.819 429.687 801.863 429.638 801.897 429.582C801.931 429.525 801.953 429.463 801.963 429.398C801.972 429.333 801.969 429.267 801.953 429.203C801.937 429.14 801.908 429.08 801.869 429.027C801.83 428.974 801.781 428.93 801.725 428.896C801.668 428.863 801.606 428.84 801.541 428.831C801.476 428.821 801.41 428.825 801.346 428.841C801.283 428.857 801.223 428.885 801.17 428.924L795.432 433.187C795.365 433.236 795.312 433.301 795.276 433.377C795.241 433.452 795.225 433.535 795.23 433.617C795.235 433.7 795.261 433.781 795.304 433.851C795.348 433.922 795.409 433.98 795.481 434.021L801.446 437.441C801.559 437.506 801.692 437.524 801.818 437.492Z" fill="#00BFA6"/>
<path id="Vector_94" d="M810.332 440.373C810.381 440.361 810.427 440.341 810.469 440.315C810.525 440.281 810.574 440.236 810.613 440.183C810.652 440.13 810.68 440.07 810.695 440.006C810.711 439.942 810.714 439.876 810.704 439.811C810.694 439.746 810.671 439.684 810.637 439.628L802.481 426.22C802.412 426.107 802.301 426.026 802.172 425.994C802.043 425.963 801.907 425.985 801.794 426.054C801.681 426.122 801.6 426.233 801.568 426.362C801.537 426.491 801.558 426.627 801.627 426.74L809.782 440.149C809.838 440.24 809.921 440.311 810.02 440.351C810.119 440.392 810.229 440.399 810.332 440.373Z" fill="#00BFA6"/>
</g>
<g id="bars">
<path id="Vector_95" d="M351.84 278.827H307.649C305.846 278.827 304.385 280.289 304.385 282.091V286.409C304.385 288.211 305.846 289.673 307.649 289.673H351.84C353.642 289.673 355.104 288.211 355.104 286.409V282.091C355.104 280.289 353.642 278.827 351.84 278.827Z" fill="#00BFA6"/>
<path id="Vector_96" d="M377.598 300.519H281.89C280.087 300.519 278.626 301.98 278.626 303.783V308.1C278.626 309.903 280.087 311.364 281.89 311.364H377.598C379.401 311.364 380.862 309.903 380.862 308.1V303.783C380.862 301.98 379.401 300.519 377.598 300.519Z" fill="#E6E6E6"/>
<path id="Vector_97" d="M377.598 322.21H281.89C280.087 322.21 278.626 323.671 278.626 325.474V329.791C278.626 331.594 280.087 333.056 281.89 333.056H377.598C379.401 333.056 380.862 331.594 380.862 329.791V325.474C380.862 323.671 379.401 322.21 377.598 322.21Z" fill="#E6E6E6"/>
</g>
<path id="Vector_98" d="M385.711 394.846L385.928 395.53L385.939 395.553L392.465 415.391L399.971 438.252L414.094 481.213L414.23 487.887V487.91L415.28 541.594L412.371 548.872L415.645 560.805C415.645 560.805 414.139 542.768 406.062 553.126C401.488 559.012 396.138 565.035 391.746 570.682C398.146 573.272 404.648 575.614 411.253 577.709C412.679 578.166 414.116 578.599 415.554 579.033C415.862 579.124 416.17 579.215 416.478 579.306C438.372 585.781 461.008 589.42 483.829 590.132C485.015 590.167 486.179 590.189 487.308 590.212C487.707 590.224 488.095 590.235 488.483 590.235C489.761 590.246 491.027 590.258 492.304 590.258C494.883 590.258 497.449 590.22 500.005 590.144C518.918 589.611 537.721 587.068 556.096 582.558C555.971 574.972 555.628 566.108 555.138 556.639C554.91 551.996 549.788 546.966 549.48 542.106C549.263 538.456 553.86 535.022 553.621 531.314C552.069 508.488 550.13 517.25 548.693 501.086C548.544 499.5 548.407 497.983 548.282 496.534C547.358 486.153 546.719 479.662 546.719 479.662L552.856 440.979L562.496 380.244L561.754 379.023L560.922 378.613L510.078 353.447L507.317 346.375C506.513 344.337 505.117 342.587 503.31 341.349C501.502 340.111 499.366 339.441 497.176 339.427L463.683 339.291C461.944 339.283 460.229 339.689 458.68 340.477C457.131 341.265 455.791 342.411 454.773 343.819L445.704 356.379L385.711 394.846Z" fill="#3F3D56"/>
<path id="Vector_99" d="M421.817 471.654L414.23 487.887L409.051 498.975L400.142 545.621L395.682 550.355L391.86 533.596L351.862 542.477C350.55 535.187 351.511 542.723 350.701 534.727C350.929 534.499 351.169 534.27 351.408 534.042C352.047 533.449 352.583 532.89 352.572 532.354C352.116 504.77 353.485 457.828 364.915 429.388C366.705 424.745 369.066 420.342 371.942 416.281C372.17 415.973 372.387 415.665 372.604 415.357C377.874 407.976 381.205 400.709 385.928 395.542V395.53C385.957 395.507 385.984 395.48 386.008 395.45C386.025 395.442 386.04 395.43 386.053 395.416L418.497 378.213L419.889 417.319L420.881 445.427L421.817 471.654Z" fill="#3F3D56"/>
<path id="Vector_100" d="M538.801 476.264L548.277 496.539L551.585 503.6L560.492 550.242L564.937 554.965L568.768 538.209L570.568 537.84L603.026 531.118L612.487 561.164C614.619 557.611 615.459 553.431 614.865 549.33C614.271 545.23 612.278 541.46 609.225 538.658C608.579 538.074 608.041 537.505 608.056 536.966C608.595 504.523 606.61 445.283 588.689 420.9C582.997 413.163 579.582 405.456 574.613 400.072C574.598 400.056 574.598 400.041 574.583 400.041L562.491 380.243L561.753 379.027L560.922 378.612L538.801 476.264Z" fill="#3F3D56"/>
<path id="Ellipse 5" d="M481.397 329.759C506.005 329.759 525.955 309.809 525.955 285.201C525.955 260.592 506.005 240.642 481.397 240.642C456.788 240.642 436.838 260.592 436.838 285.201C436.838 309.809 456.788 329.759 481.397 329.759Z" fill="#FFB6B6"/>
<path id="Vector_101" d="M541.622 254.077C541.277 253.708 540.861 253.412 540.398 253.208C539.936 253.003 539.438 252.894 538.932 252.887L539.602 251.027C539.821 250.441 539.88 249.807 539.773 249.191C539.667 248.575 539.398 247.998 538.995 247.52C538.592 247.042 538.069 246.679 537.48 246.47C536.891 246.26 536.257 246.211 535.642 246.327L533.202 246.797L533.432 245.167C533.52 244.56 533.449 243.94 533.225 243.369C533.001 242.798 532.633 242.295 532.155 241.909C531.678 241.524 531.109 241.269 530.503 241.171C529.898 241.072 529.277 241.133 528.702 241.347C528.179 241.553 527.617 241.639 527.056 241.599C526.496 241.559 525.951 241.394 525.462 241.117C524.972 240.848 524.546 240.475 524.214 240.024C523.882 239.573 523.653 239.055 523.542 238.507L522.692 234.407L522.602 234.187C518.462 227.287 510.502 222.267 500.762 220.427C492.092 218.777 483.202 219.617 474.632 220.407C471.232 220.727 467.392 221.087 464.192 223.047C461.472 224.727 459.172 228.087 459.642 231.477C451.192 228.887 442.132 234.057 437.642 240.577C432.322 248.337 431.452 258.057 431.312 265.657C430.932 283.637 434.642 298.347 442.312 309.387C442.872 310.187 443.012 311.857 444.122 312.417L443.892 312.047C445.132 312.667 446.392 313.667 445.922 314.737C444.572 317.817 453.542 324.627 459.862 326.877C471.392 330.987 486.722 330.637 497.502 329.157L497.882 326.607C501.772 326.077 504.512 325.067 505.282 323.487C506.642 322.327 507.802 321.287 508.812 320.327L508.822 320.317C508.842 320.297 508.882 320.267 508.902 320.247C513.772 315.577 514.902 312.917 515.412 308.867C515.902 304.897 515.032 300.867 514.142 297.237C532.882 300.137 506.762 277.277 524.222 272.857C524.423 272.795 524.626 272.745 524.832 272.707C525.342 272.587 525.852 272.467 526.342 272.327C528.704 271.686 530.966 270.72 533.062 269.457C537.942 266.487 539.552 262.547 542.072 258.107C542.436 257.475 542.588 256.743 542.507 256.018C542.426 255.293 542.116 254.613 541.622 254.077Z" fill="#2F2E41"/>
<path id="Vector_102" d="M638.992 479.437C638.982 481.187 638.962 483.637 638.882 486.667C638.872 487.087 638.862 487.517 638.852 487.957C638.722 493.527 638.592 498.197 638.382 503.387C638.372 503.747 638.362 504.097 638.342 504.457C638.062 511.697 637.622 520.127 636.862 533.477C635.452 558.137 632.992 536.867 630.522 545.517C630.402 545.947 630.272 546.457 630.152 547.057C629.778 549.234 629.147 551.359 628.272 553.387C626.962 554.167 625.612 554.917 624.282 555.667C620.492 557.777 616.642 559.807 612.762 561.737C610.582 562.817 608.392 563.877 606.192 564.897C605.842 565.057 605.502 565.217 605.162 565.367C593.896 570.578 582.286 575.008 570.412 578.627C568.092 579.327 565.782 580.007 563.442 580.637C561.002 581.317 558.562 581.957 556.092 582.557C537.717 587.068 518.915 589.612 500.002 590.147C497.452 590.227 494.882 590.257 492.302 590.257C491.022 590.257 489.762 590.247 488.482 590.237C488.092 590.237 487.702 590.227 487.312 590.217C486.182 590.187 485.012 590.167 483.832 590.137C461.011 589.425 438.376 585.785 416.482 579.307L415.552 579.037C414.112 578.597 412.682 578.167 411.252 577.707C404.652 575.617 398.149 573.277 391.742 570.687C386.852 568.717 382.019 566.603 377.242 564.347C377.199 564.335 377.158 564.315 377.122 564.287C376.122 563.827 375.112 563.347 374.112 562.857C373.982 562.787 373.842 562.717 373.702 562.647C369.972 560.827 366.282 558.92 362.632 556.927C359.562 549.877 355.242 548.527 352.562 542.327C351.782 540.485 351.219 538.559 350.882 536.587C350.882 536.567 350.872 536.547 350.872 536.517C351.152 540.237 349.682 529.917 350.862 536.477C350.852 536.357 350.842 536.227 350.832 536.077C350.802 535.717 350.762 535.277 350.702 534.727C347.272 501.237 347.492 462.937 346.002 431.377C345.902 429.337 345.799 427.383 345.692 425.517C345.662 424.897 345.622 424.287 345.582 423.687C345.652 423.507 345.732 423.317 345.822 423.137C345.841 423.085 345.865 423.035 345.892 422.987C345.922 422.925 345.955 422.865 345.992 422.807C346.012 422.777 346.042 422.737 346.062 422.707C346.077 422.672 346.094 422.639 346.112 422.607C346.202 422.467 346.302 422.317 346.412 422.177C346.462 422.117 346.502 422.067 346.552 422.017C346.587 421.966 346.627 421.919 346.672 421.877C346.703 421.829 346.74 421.785 346.782 421.747C346.822 421.707 346.862 421.657 346.912 421.607C346.934 421.575 346.961 421.548 346.992 421.527C347.071 421.436 347.158 421.352 347.252 421.277C347.609 420.949 347.99 420.648 348.392 420.377C348.532 420.287 348.682 420.197 348.822 420.097C349.83 419.494 350.891 418.985 351.992 418.577C352.372 418.437 352.752 418.307 353.162 418.167C353.312 418.127 353.452 418.077 353.602 418.027C353.822 417.957 354.042 417.887 354.272 417.837C355.412 417.497 356.642 417.207 357.972 416.937C358.132 416.907 358.302 416.877 358.472 416.837C358.712 416.787 358.962 416.747 359.212 416.707C359.552 416.647 359.902 416.587 360.252 416.527C363.222 416.057 366.592 415.707 370.312 415.477C370.662 415.457 371.012 415.437 371.362 415.417C371.772 415.397 372.182 415.377 372.602 415.357C372.952 415.337 373.312 415.327 373.672 415.317C374.022 415.297 374.382 415.287 374.752 415.277C375.762 415.247 376.802 415.217 377.862 415.197C380.882 415.137 384.062 415.157 387.402 415.227C388.952 415.267 390.532 415.307 392.152 415.377C392.262 415.377 392.362 415.387 392.462 415.387C393.872 415.437 395.292 415.497 396.752 415.577C397.772 415.627 398.802 415.677 399.832 415.737C400.802 415.797 401.782 415.857 402.772 415.927C403.542 415.967 404.312 416.027 405.092 416.077C405.752 416.127 406.412 416.177 407.072 416.217L407.972 416.277C408.462 416.317 408.952 416.347 409.452 416.397C410.552 416.487 411.652 416.577 412.772 416.667C413.882 416.767 415.012 416.867 416.142 416.967C417.272 417.067 418.412 417.177 419.552 417.287C419.672 417.297 419.782 417.307 419.892 417.317C420.932 417.427 421.972 417.527 423.022 417.637C423.262 417.657 423.512 417.677 423.752 417.707C424.753 417.807 425.774 417.925 426.784 418.032C427.094 418.066 427.403 418.098 427.714 418.132C428.505 418.219 429.285 418.293 430.082 418.387C431.132 418.507 432.202 418.617 433.242 418.757C434.052 418.847 434.862 418.937 435.672 419.037C436.942 419.187 438.232 419.347 439.522 419.517C440.012 419.577 440.502 419.637 440.992 419.707C444.672 420.167 448.392 420.677 452.172 421.207C457.902 422.017 463.722 422.897 469.582 423.847C475.452 424.797 481.356 425.8 487.292 426.857C488.792 427.127 490.292 427.397 491.802 427.677C492.482 427.807 493.162 427.937 493.842 428.067C495.002 428.277 496.162 428.497 497.322 428.717C498.482 428.937 499.642 429.157 500.802 429.387C502.182 429.657 503.572 429.927 504.952 430.197C514.042 431.997 523.082 433.917 531.902 435.927C533.352 436.257 534.802 436.597 536.242 436.927C539.122 437.597 541.976 438.277 544.802 438.967C545.582 439.147 546.352 439.337 547.122 439.527C549.042 440.007 550.962 440.487 552.852 440.977L553.182 441.067C554.572 441.407 555.932 441.757 557.292 442.117C560.502 442.957 563.659 443.807 566.762 444.667C568.822 445.237 570.859 445.813 572.872 446.397C575.882 447.267 578.832 448.147 581.702 449.037C582.412 449.257 583.122 449.477 583.822 449.687C585.922 450.337 587.992 450.997 590.002 451.657C591.602 452.177 593.162 452.707 594.702 453.237C596.242 453.767 597.752 454.297 599.232 454.827C600.182 455.167 601.122 455.527 602.062 455.867C603.412 456.367 604.742 456.867 606.042 457.367C606.442 457.517 606.832 457.677 607.222 457.827C607.472 457.937 607.712 458.027 607.952 458.127C608.422 458.317 608.902 458.497 609.362 458.687C609.832 458.867 610.292 459.057 610.752 459.257C611.202 459.437 611.662 459.627 612.102 459.817C612.552 459.997 612.992 460.187 613.432 460.387C613.802 460.537 614.162 460.697 614.512 460.857C615.222 461.167 615.932 461.477 616.622 461.797C616.962 461.957 617.302 462.107 617.642 462.267L618.422 462.627C618.532 462.687 618.642 462.737 618.752 462.787C619.002 462.907 619.262 463.037 619.512 463.157C620.092 463.427 620.662 463.717 621.222 463.987C621.972 464.367 622.702 464.747 623.402 465.117C624.112 465.497 624.802 465.877 625.462 466.247C625.572 466.307 625.672 466.367 625.782 466.427C625.932 466.507 626.082 466.597 626.232 466.677C626.742 466.967 627.232 467.267 627.722 467.557C628.682 468.147 629.592 468.727 630.442 469.307C630.632 469.437 630.812 469.567 631.002 469.687C631.632 470.137 632.232 470.577 632.792 471.027C632.792 471.037 632.792 471.037 632.802 471.037C632.992 471.177 633.172 471.327 633.352 471.467C633.502 471.607 633.662 471.727 633.812 471.867C634.332 472.317 634.812 472.747 635.252 473.187C635.4 473.322 635.54 473.466 635.672 473.617C635.73 473.665 635.784 473.718 635.832 473.777C636.032 473.977 636.212 474.177 636.382 474.377C636.409 474.404 636.432 474.434 636.452 474.467C636.692 474.747 636.912 475.027 637.122 475.307C637.222 475.447 637.332 475.587 637.422 475.727C637.542 475.897 637.662 476.077 637.762 476.247C637.852 476.387 637.932 476.537 638.012 476.677C638.224 477.037 638.405 477.415 638.552 477.807C638.665 478.072 638.755 478.346 638.822 478.627C638.898 478.892 638.955 479.163 638.992 479.437Z" fill="#2F2E41"/>
<path id="Vector_103" opacity="0.2" d="M638.992 479.437C638.982 481.187 638.962 483.637 638.882 486.667C638.872 487.087 638.852 487.517 638.842 487.957C638.742 492.207 638.592 497.457 638.382 503.387C638.372 503.747 638.362 504.097 638.342 504.457C638.062 511.697 637.622 520.127 636.862 533.477C635.452 558.137 632.992 536.867 630.522 545.517C623.662 541.297 616.142 536.877 608.102 532.337C606.652 531.517 605.189 530.693 603.712 529.867C587.632 520.897 569.672 511.497 550.922 502.187C550.182 501.817 549.432 501.447 548.692 501.087C505.742 479.857 458.862 459.207 420.882 445.427C413.552 442.767 406.552 440.367 399.972 438.257C386.112 433.827 374.132 430.727 364.912 429.387C355.312 427.987 348.682 428.487 346.002 431.377C345.902 429.337 345.799 427.383 345.692 425.517C345.652 424.897 345.612 424.287 345.572 423.687C345.634 423.522 345.714 423.365 345.792 423.207C345.803 423.183 345.811 423.16 345.822 423.137C345.841 423.085 345.865 423.035 345.892 422.987C345.922 422.925 345.955 422.865 345.992 422.807C346.025 422.736 346.065 422.669 346.112 422.607C346.202 422.467 346.302 422.317 346.412 422.177C346.493 422.072 346.58 421.972 346.672 421.877C346.703 421.829 346.74 421.785 346.782 421.747C346.822 421.707 346.862 421.657 346.912 421.607C346.934 421.575 346.961 421.548 346.992 421.527C347.071 421.436 347.158 421.352 347.252 421.277C347.609 420.948 347.99 420.648 348.392 420.377C348.532 420.287 348.682 420.197 348.822 420.097C349.83 419.494 350.891 418.985 351.992 418.577C352.372 418.437 352.752 418.307 353.162 418.167C353.312 418.127 353.452 418.077 353.602 418.027C353.822 417.957 354.042 417.887 354.272 417.837C355.412 417.497 356.642 417.207 357.972 416.937C358.372 416.857 358.792 416.777 359.212 416.707C359.552 416.647 359.902 416.587 360.252 416.527C363.222 416.057 366.592 415.707 370.312 415.477C370.662 415.457 371.012 415.437 371.362 415.417C371.772 415.397 372.182 415.377 372.602 415.357C372.952 415.337 373.312 415.327 373.672 415.317C374.022 415.297 374.382 415.287 374.752 415.277C375.762 415.247 376.802 415.217 377.862 415.197C380.882 415.147 384.062 415.167 387.402 415.237C388.952 415.267 390.532 415.317 392.152 415.387C392.252 415.387 392.362 415.397 392.462 415.397C393.872 415.437 395.302 415.507 396.752 415.577C397.772 415.627 398.802 415.677 399.832 415.737C400.802 415.797 401.782 415.857 402.772 415.927C403.542 415.967 404.312 416.027 405.092 416.077C405.752 416.127 406.412 416.177 407.072 416.217C407.862 416.277 408.652 416.337 409.452 416.397C410.552 416.487 411.652 416.577 412.772 416.667C413.882 416.767 415.012 416.867 416.142 416.967C417.272 417.067 418.412 417.177 419.552 417.287C419.672 417.297 419.782 417.307 419.892 417.317C420.932 417.427 421.972 417.527 423.022 417.637C428.842 418.227 434.832 418.917 440.992 419.707C444.672 420.177 448.399 420.68 452.172 421.217C457.902 422.027 463.722 422.907 469.582 423.847C475.452 424.797 481.356 425.8 487.292 426.857C488.792 427.127 490.292 427.397 491.802 427.677C493.642 428.017 495.482 428.363 497.322 428.717C498.482 428.937 499.642 429.157 500.802 429.387C502.182 429.657 503.572 429.927 504.952 430.197C514.042 431.997 523.082 433.917 531.902 435.927C533.352 436.257 534.802 436.597 536.242 436.927C539.122 437.597 541.976 438.277 544.802 438.967C545.582 439.157 546.352 439.347 547.122 439.537C549.052 440.017 550.962 440.497 552.852 440.977V440.987C552.962 441.007 553.072 441.037 553.182 441.067C554.562 441.417 555.932 441.767 557.292 442.127C560.502 442.967 563.659 443.813 566.762 444.667C568.822 445.247 570.862 445.817 572.872 446.397C575.882 447.277 578.832 448.157 581.702 449.037C582.412 449.257 583.122 449.477 583.822 449.687C585.922 450.347 587.982 451.003 590.002 451.657C591.602 452.177 593.162 452.707 594.702 453.237C596.242 453.767 597.752 454.297 599.232 454.827C600.192 455.167 601.132 455.517 602.062 455.857C603.422 456.357 604.742 456.857 606.042 457.367C606.442 457.517 606.832 457.677 607.222 457.827C607.952 458.107 608.662 458.397 609.362 458.687C609.832 458.867 610.292 459.057 610.752 459.257C611.202 459.437 611.662 459.627 612.102 459.817C612.552 459.997 612.992 460.187 613.432 460.387C613.802 460.537 614.162 460.697 614.512 460.857C615.222 461.167 615.932 461.477 616.622 461.797C616.962 461.957 617.302 462.107 617.642 462.267L618.422 462.627C618.532 462.687 618.642 462.737 618.752 462.787C619.602 463.187 620.422 463.587 621.222 463.987C621.972 464.367 622.702 464.747 623.402 465.117C624.232 465.557 625.022 465.987 625.782 466.427C625.932 466.507 626.082 466.597 626.232 466.677C626.742 466.967 627.232 467.267 627.722 467.557C628.682 468.147 629.592 468.727 630.442 469.307C631.282 469.887 632.062 470.457 632.792 471.027C632.792 471.037 632.792 471.037 632.802 471.037C633.152 471.317 633.492 471.597 633.812 471.867C634.332 472.317 634.812 472.747 635.252 473.187C635.4 473.322 635.54 473.466 635.672 473.617C635.73 473.665 635.784 473.718 635.832 473.777C636.042 474.007 636.252 474.237 636.452 474.467C636.692 474.747 636.912 475.027 637.122 475.307C637.222 475.447 637.332 475.587 637.422 475.727C637.542 475.897 637.662 476.077 637.762 476.247C637.852 476.387 637.932 476.537 638.012 476.677C638.224 477.037 638.405 477.415 638.552 477.807C638.662 478.073 638.752 478.347 638.822 478.627C638.898 478.892 638.955 479.163 638.992 479.437Z" fill="black"/>
</svg>
